<svg xmlns="http://www.w3.org/2000/svg" xmlns:xlink="http://www.w3.org/1999/xlink" width="375" height="55" viewBox="0 170 375 55" preserveAspectRatio="xMidYMid meet" version="1.2"><defs><clipPath id="e16ff9eafe"><path d="M 218.28125 170.339844 L 264 170.339844 L 264 204.839844 L 218.28125 204.839844 Z M 218.28125 170.339844 "/></clipPath><clipPath id="d4d01be695"><path d="M 218.28125 170.339844 L 264.78125 170.339844 L 264.78125 204.839844 L 218.28125 204.839844 Z M 218.28125 170.339844 "/></clipPath><clipPath id="732e164ef0"><path d="M 232.933594 175 L 249.433594 175 L 249.433594 191.511719 L 232.933594 191.511719 Z M 232.933594 175 "/></clipPath><clipPath id="914691a2e2"><path d="M 237 171.261719 L 246 171.261719 L 246 179 L 237 179 Z M 237 171.261719 "/></clipPath><clipPath id="8c5b5897b4"><path d="M 259.476562 219.578125 L 264.726562 219.578125 L 264.726562 224.828125 L 259.476562 224.828125 Z M 259.476562 219.578125 "/></clipPath></defs><g id="171ca9b278"><g clip-rule="nonzero" clip-path="url(#e16ff9eafe)"><path style=" stroke:none;fill-rule:nonzero;fill:#939bfb;fill-opacity:1;" d="M 259.816406 170.792969 L 222.882812 170.792969 C 220.589844 170.792969 218.722656 172.660156 218.722656 174.953125 L 218.722656 190.710938 C 218.722656 193.003906 220.589844 194.871094 222.882812 194.871094 L 253.0625 194.871094 C 256.691406 199.433594 262.71875 204.199219 262.71875 204.199219 C 262.71875 204.199219 259.351562 199.511719 259.300781 194.871094 L 259.816406 194.871094 C 262.113281 194.871094 263.976562 193.003906 263.976562 190.710938 L 263.976562 174.953125 C 263.976562 172.660156 262.113281 170.792969 259.816406 170.792969 Z M 259.816406 170.792969 "/></g><g clip-rule="nonzero" clip-path="url(#d4d01be695)"><path style=" stroke:none;fill-rule:nonzero;fill:#939bfb;fill-opacity:1;" d="M 262.71875 204.640625 C 262.617188 204.640625 262.515625 204.601562 262.441406 204.539062 C 262.375 204.488281 256.476562 199.800781 252.847656 195.3125 L 222.882812 195.3125 C 220.347656 195.3125 218.28125 193.246094 218.28125 190.710938 L 218.28125 174.953125 C 218.28125 172.421875 220.347656 170.351562 222.882812 170.351562 L 259.816406 170.351562 C 262.351562 170.351562 264.417969 172.421875 264.417969 174.953125 L 264.417969 190.710938 C 264.417969 193.246094 262.351562 195.3125 259.816406 195.3125 L 259.753906 195.3125 C 259.996094 199.421875 262.78125 203.519531 263.058594 203.910156 C 263.121094 203.984375 263.160156 204.085938 263.160156 204.199219 C 263.160156 204.4375 262.96875 204.640625 262.71875 204.640625 Z M 222.882812 171.234375 C 220.828125 171.234375 219.164062 172.898438 219.164062 174.953125 L 219.164062 190.710938 C 219.164062 192.765625 220.828125 194.429688 222.882812 194.429688 L 253.0625 194.429688 C 253.199219 194.429688 253.324219 194.492188 253.402344 194.59375 C 255.671875 197.441406 258.910156 200.40625 260.976562 202.183594 C 260.007812 200.34375 258.871094 197.617188 258.847656 194.871094 C 258.847656 194.757812 258.898438 194.644531 258.972656 194.554688 C 259.0625 194.46875 259.175781 194.429688 259.289062 194.429688 L 259.804688 194.429688 C 261.859375 194.429688 263.523438 192.765625 263.523438 190.710938 L 263.523438 174.953125 C 263.535156 172.898438 261.871094 171.234375 259.816406 171.234375 Z M 222.882812 171.234375 "/></g><g style="fill:#ffffff;fill-opacity:1;"><g transform="translate(236.55308, 187.085321)"><path style="stroke:none" d="M 3.484375 -5.703125 L 1.21875 -0.375 C 1.164062 -0.238281 1.085938 -0.132812 0.984375 -0.0625 C 0.890625 0.0078125 0.78125 0.046875 0.65625 0.046875 C 0.46875 0.046875 0.328125 -0.00390625 0.234375 -0.109375 C 0.148438 -0.210938 0.109375 -0.34375 0.109375 -0.5 C 0.109375 -0.5625 0.117188 -0.625 0.140625 -0.6875 L 2.75 -6.96875 C 2.800781 -7.113281 2.882812 -7.222656 3 -7.296875 C 3.125 -7.367188 3.25 -7.398438 3.375 -7.390625 C 3.5 -7.390625 3.613281 -7.351562 3.71875 -7.28125 C 3.832031 -7.207031 3.914062 -7.101562 3.96875 -6.96875 L 6.546875 -0.8125 C 6.585938 -0.726562 6.609375 -0.644531 6.609375 -0.5625 C 6.609375 -0.375 6.546875 -0.222656 6.421875 -0.109375 C 6.296875 -0.00390625 6.160156 0.046875 6.015625 0.046875 C 5.890625 0.046875 5.773438 0.0078125 5.671875 -0.0625 C 5.566406 -0.132812 5.488281 -0.238281 5.4375 -0.375 L 3.1875 -5.640625 Z M 1.546875 -1.65625 L 2.125 -2.859375 L 4.953125 -2.859375 L 5.15625 -1.65625 Z M 1.546875 -1.65625 "/></g></g><g style="fill:#ffffff;fill-opacity:1;"><g transform="translate(243.262556, 187.085321)"><path style="stroke:none" d="M 2.09375 -0.640625 C 2.09375 -0.460938 2.023438 -0.3125 1.890625 -0.1875 C 1.765625 -0.0625 1.613281 0 1.4375 0 C 1.238281 0 1.078125 -0.0625 0.953125 -0.1875 C 0.835938 -0.3125 0.78125 -0.460938 0.78125 -0.640625 L 0.78125 -6.703125 C 0.78125 -6.890625 0.84375 -7.039062 0.96875 -7.15625 C 1.101562 -7.28125 1.265625 -7.34375 1.453125 -7.34375 C 1.628906 -7.34375 1.78125 -7.28125 1.90625 -7.15625 C 2.03125 -7.039062 2.09375 -6.890625 2.09375 -6.703125 Z M 2.09375 -0.640625 "/></g></g><g clip-rule="nonzero" clip-path="url(#732e164ef0)"><path style=" stroke:none;fill-rule:nonzero;fill:#ffffff;fill-opacity:1;" d="M 248.523438 191.453125 L 234.257812 191.453125 C 233.914062 191.453125 233.574219 191.308594 233.339844 191.058594 C 233.101562 190.804688 232.972656 190.464844 232.992188 190.117188 L 233.746094 176.601562 C 233.78125 175.929688 234.335938 175.402344 235.007812 175.402344 L 247.773438 175.402344 C 248.445312 175.402344 249 175.929688 249.039062 176.601562 L 249.789062 190.117188 C 249.808594 190.464844 249.683594 190.804688 249.445312 191.058594 C 249.207031 191.308594 248.871094 191.453125 248.523438 191.453125 Z M 235.007812 176.246094 C 234.785156 176.246094 234.601562 176.421875 234.589844 176.644531 L 233.835938 190.164062 C 233.832031 190.28125 233.871094 190.390625 233.953125 190.476562 C 234.03125 190.5625 234.140625 190.609375 234.257812 190.609375 L 248.523438 190.609375 C 248.640625 190.609375 248.75 190.5625 248.832031 190.476562 C 248.910156 190.390625 248.953125 190.28125 248.945312 190.164062 L 248.195312 176.644531 C 248.183594 176.421875 247.996094 176.246094 247.773438 176.246094 Z M 235.007812 176.246094 "/></g><g clip-rule="nonzero" clip-path="url(#914691a2e2)"><path style=" stroke:none;fill-rule:nonzero;fill:#ffffff;fill-opacity:1;" d="M 245.191406 178.800781 C 244.960938 178.800781 244.769531 178.613281 244.769531 178.378906 L 244.769531 175.480469 C 244.769531 173.617188 243.253906 172.101562 241.390625 172.101562 C 239.527344 172.101562 238.011719 173.617188 238.011719 175.480469 L 238.011719 178.378906 C 238.011719 178.613281 237.824219 178.800781 237.589844 178.800781 C 237.355469 178.800781 237.167969 178.613281 237.167969 178.378906 L 237.167969 175.480469 C 237.167969 173.152344 239.0625 171.257812 241.390625 171.257812 C 243.71875 171.257812 245.617188 173.152344 245.617188 175.480469 L 245.617188 178.378906 C 245.617188 178.613281 245.425781 178.800781 245.191406 178.800781 Z M 245.191406 178.800781 "/></g><g clip-rule="nonzero" clip-path="url(#8c5b5897b4)"><path style=" stroke:none;fill-rule:nonzero;fill:#000000;fill-opacity:1;" d="M 264.726562 222.203125 C 264.726562 222.550781 264.660156 222.882812 264.527344 223.207031 C 264.390625 223.527344 264.203125 223.8125 263.957031 224.058594 C 263.710938 224.304688 263.425781 224.492188 263.105469 224.625 C 262.785156 224.757812 262.449219 224.828125 262.101562 224.828125 C 261.753906 224.828125 261.417969 224.757812 261.097656 224.625 C 260.773438 224.492188 260.492188 224.304688 260.246094 224.058594 C 260 223.8125 259.808594 223.527344 259.675781 223.207031 C 259.542969 222.882812 259.476562 222.550781 259.476562 222.203125 C 259.476562 221.851562 259.542969 221.519531 259.675781 221.195312 C 259.808594 220.875 260 220.589844 260.246094 220.34375 C 260.492188 220.097656 260.773438 219.910156 261.097656 219.777344 C 261.417969 219.644531 261.753906 219.578125 262.101562 219.578125 C 262.449219 219.578125 262.785156 219.644531 263.105469 219.777344 C 263.425781 219.910156 263.710938 220.097656 263.957031 220.34375 C 264.203125 220.589844 264.390625 220.875 264.527344 221.195312 C 264.660156 221.519531 264.726562 221.851562 264.726562 222.203125 Z M 264.726562 222.203125 "/></g><g style="fill:#f96226;fill-opacity:1;"><g transform="translate(110.574393, 222.580063)"><path style="stroke:none" d="M 11.5625 0.28125 C 10.113281 0.28125 8.757812 0.015625 7.5 -0.515625 C 6.25 -1.046875 5.144531 -1.78125 4.1875 -2.71875 C 3.238281 -3.664062 2.492188 -4.753906 1.953125 -5.984375 C 1.410156 -7.222656 1.140625 -8.554688 1.140625 -9.984375 C 1.140625 -11.410156 1.410156 -12.738281 1.953125 -13.96875 C 2.492188 -15.207031 3.238281 -16.296875 4.1875 -17.234375 C 5.144531 -18.179688 6.25 -18.921875 7.5 -19.453125 C 8.757812 -19.984375 10.113281 -20.25 11.5625 -20.25 C 12.445312 -20.25 13.304688 -20.15625 14.140625 -19.96875 C 14.984375 -19.78125 15.757812 -19.492188 16.46875 -19.109375 C 16.75 -18.960938 16.957031 -18.757812 17.09375 -18.5 C 17.238281 -18.25 17.3125 -17.988281 17.3125 -17.71875 C 17.3125 -17.257812 17.160156 -16.847656 16.859375 -16.484375 C 16.554688 -16.128906 16.164062 -15.953125 15.6875 -15.953125 C 15.539062 -15.953125 15.382812 -15.96875 15.21875 -16 C 15.0625 -16.039062 14.90625 -16.097656 14.75 -16.171875 C 14.269531 -16.378906 13.765625 -16.539062 13.234375 -16.65625 C 12.703125 -16.769531 12.144531 -16.828125 11.5625 -16.828125 C 10.320312 -16.828125 9.191406 -16.519531 8.171875 -15.90625 C 7.148438 -15.289062 6.335938 -14.460938 5.734375 -13.421875 C 5.140625 -12.390625 4.84375 -11.242188 4.84375 -9.984375 C 4.84375 -8.742188 5.140625 -7.601562 5.734375 -6.5625 C 6.335938 -5.519531 7.148438 -4.6875 8.171875 -4.0625 C 9.191406 -3.445312 10.320312 -3.140625 11.5625 -3.140625 C 12.125 -3.140625 12.75 -3.195312 13.4375 -3.3125 C 14.125 -3.425781 14.6875 -3.578125 15.125 -3.765625 L 14.859375 -2.90625 L 14.859375 -7.78125 L 15.34375 -7.359375 L 12.1875 -7.359375 C 11.6875 -7.359375 11.269531 -7.519531 10.9375 -7.84375 C 10.601562 -8.164062 10.4375 -8.578125 10.4375 -9.078125 C 10.4375 -9.566406 10.601562 -9.972656 10.9375 -10.296875 C 11.269531 -10.617188 11.6875 -10.78125 12.1875 -10.78125 L 16.859375 -10.78125 C 17.359375 -10.78125 17.769531 -10.613281 18.09375 -10.28125 C 18.414062 -9.945312 18.578125 -9.535156 18.578125 -9.046875 L 18.578125 -3 C 18.578125 -2.613281 18.484375 -2.296875 18.296875 -2.046875 C 18.117188 -1.804688 17.914062 -1.609375 17.6875 -1.453125 C 16.8125 -0.921875 15.851562 -0.5 14.8125 -0.1875 C 13.78125 0.125 12.695312 0.28125 11.5625 0.28125 Z M 11.5625 0.28125 "/></g></g><g style="fill:#f96226;fill-opacity:1;"><g transform="translate(130.434846, 222.580063)"><path style="stroke:none" d="M 16.65625 -7.625 C 16.65625 -6.0625 16.304688 -4.6875 15.609375 -3.5 C 14.921875 -2.3125 13.988281 -1.382812 12.8125 -0.71875 C 11.644531 -0.0507812 10.34375 0.28125 8.90625 0.28125 C 7.457031 0.28125 6.144531 -0.0507812 4.96875 -0.71875 C 3.800781 -1.382812 2.867188 -2.3125 2.171875 -3.5 C 1.484375 -4.6875 1.140625 -6.0625 1.140625 -7.625 C 1.140625 -9.175781 1.484375 -10.546875 2.171875 -11.734375 C 2.867188 -12.929688 3.800781 -13.863281 4.96875 -14.53125 C 6.144531 -15.207031 7.457031 -15.546875 8.90625 -15.546875 C 10.34375 -15.546875 11.644531 -15.207031 12.8125 -14.53125 C 13.988281 -13.863281 14.921875 -12.929688 15.609375 -11.734375 C 16.304688 -10.546875 16.65625 -9.175781 16.65625 -7.625 Z M 13.234375 -7.625 C 13.234375 -8.59375 13.035156 -9.429688 12.640625 -10.140625 C 12.253906 -10.859375 11.734375 -11.414062 11.078125 -11.8125 C 10.421875 -12.207031 9.695312 -12.40625 8.90625 -12.40625 C 8.101562 -12.40625 7.375 -12.207031 6.71875 -11.8125 C 6.0625 -11.414062 5.535156 -10.859375 5.140625 -10.140625 C 4.753906 -9.429688 4.5625 -8.59375 4.5625 -7.625 C 4.5625 -6.664062 4.753906 -5.828125 5.140625 -5.109375 C 5.535156 -4.398438 6.0625 -3.847656 6.71875 -3.453125 C 7.375 -3.054688 8.101562 -2.859375 8.90625 -2.859375 C 9.695312 -2.859375 10.421875 -3.054688 11.078125 -3.453125 C 11.734375 -3.847656 12.253906 -4.398438 12.640625 -5.109375 C 13.035156 -5.828125 13.234375 -6.664062 13.234375 -7.625 Z M 13.234375 -7.625 "/></g></g><g style="fill:#150d0a;fill-opacity:1;"><g transform="translate(148.250172, 222.580063)"><path style="stroke:none" d="M 8.5625 0.28125 C 7.226562 0.28125 6.023438 0.113281 4.953125 -0.21875 C 3.890625 -0.550781 2.875 -1.132812 1.90625 -1.96875 C 1.664062 -2.175781 1.476562 -2.410156 1.34375 -2.671875 C 1.207031 -2.941406 1.140625 -3.210938 1.140625 -3.484375 C 1.140625 -3.921875 1.296875 -4.304688 1.609375 -4.640625 C 1.921875 -4.972656 2.316406 -5.140625 2.796875 -5.140625 C 3.160156 -5.140625 3.484375 -5.023438 3.765625 -4.796875 C 4.484375 -4.203125 5.195312 -3.753906 5.90625 -3.453125 C 6.625 -3.148438 7.507812 -3 8.5625 -3 C 9.257812 -3 9.90625 -3.109375 10.5 -3.328125 C 11.09375 -3.546875 11.566406 -3.835938 11.921875 -4.203125 C 12.285156 -4.578125 12.46875 -5.003906 12.46875 -5.484375 C 12.46875 -6.046875 12.296875 -6.523438 11.953125 -6.921875 C 11.609375 -7.328125 11.082031 -7.664062 10.375 -7.9375 C 9.675781 -8.21875 8.785156 -8.4375 7.703125 -8.59375 C 6.671875 -8.738281 5.765625 -8.96875 4.984375 -9.28125 C 4.210938 -9.59375 3.5625 -9.992188 3.03125 -10.484375 C 2.507812 -10.972656 2.113281 -11.546875 1.84375 -12.203125 C 1.582031 -12.859375 1.453125 -13.59375 1.453125 -14.40625 C 1.453125 -15.644531 1.769531 -16.703125 2.40625 -17.578125 C 3.039062 -18.453125 3.898438 -19.113281 4.984375 -19.5625 C 6.078125 -20.019531 7.28125 -20.25 8.59375 -20.25 C 9.820312 -20.25 10.960938 -20.0625 12.015625 -19.6875 C 13.078125 -19.320312 13.941406 -18.851562 14.609375 -18.28125 C 15.160156 -17.84375 15.4375 -17.34375 15.4375 -16.78125 C 15.4375 -16.363281 15.273438 -15.984375 14.953125 -15.640625 C 14.628906 -15.296875 14.25 -15.125 13.8125 -15.125 C 13.519531 -15.125 13.257812 -15.207031 13.03125 -15.375 C 12.726562 -15.644531 12.320312 -15.894531 11.8125 -16.125 C 11.300781 -16.363281 10.757812 -16.5625 10.1875 -16.71875 C 9.613281 -16.882812 9.082031 -16.96875 8.59375 -16.96875 C 7.769531 -16.96875 7.078125 -16.863281 6.515625 -16.65625 C 5.953125 -16.445312 5.53125 -16.160156 5.25 -15.796875 C 4.96875 -15.441406 4.828125 -15.023438 4.828125 -14.546875 C 4.828125 -13.972656 4.992188 -13.5 5.328125 -13.125 C 5.660156 -12.757812 6.140625 -12.46875 6.765625 -12.25 C 7.390625 -12.03125 8.140625 -11.835938 9.015625 -11.671875 C 10.160156 -11.460938 11.164062 -11.210938 12.03125 -10.921875 C 12.894531 -10.640625 13.609375 -10.273438 14.171875 -9.828125 C 14.742188 -9.378906 15.171875 -8.816406 15.453125 -8.140625 C 15.742188 -7.472656 15.890625 -6.648438 15.890625 -5.671875 C 15.890625 -4.441406 15.546875 -3.378906 14.859375 -2.484375 C 14.179688 -1.585938 13.285156 -0.898438 12.171875 -0.421875 C 11.054688 0.046875 9.851562 0.28125 8.5625 0.28125 Z M 8.5625 0.28125 "/></g></g><g style="fill:#150d0a;fill-opacity:1;"><g transform="translate(165.28564, 222.580063)"><path style="stroke:none" d="M 9.875 -15.546875 C 11.238281 -15.546875 12.273438 -15.25 12.984375 -14.65625 C 13.703125 -14.070312 14.191406 -13.289062 14.453125 -12.3125 C 14.722656 -11.332031 14.859375 -10.242188 14.859375 -9.046875 L 14.859375 -1.734375 C 14.859375 -1.242188 14.695312 -0.832031 14.375 -0.5 C 14.050781 -0.164062 13.644531 0 13.15625 0 C 12.65625 0 12.242188 -0.164062 11.921875 -0.5 C 11.597656 -0.832031 11.4375 -1.242188 11.4375 -1.734375 L 11.4375 -9.046875 C 11.4375 -9.671875 11.359375 -10.234375 11.203125 -10.734375 C 11.054688 -11.242188 10.78125 -11.648438 10.375 -11.953125 C 9.976562 -12.253906 9.410156 -12.40625 8.671875 -12.40625 C 7.953125 -12.40625 7.332031 -12.253906 6.8125 -11.953125 C 6.300781 -11.648438 5.914062 -11.242188 5.65625 -10.734375 C 5.40625 -10.234375 5.28125 -9.671875 5.28125 -9.046875 L 5.28125 -1.734375 C 5.28125 -1.242188 5.117188 -0.832031 4.796875 -0.5 C 4.472656 -0.164062 4.0625 0 3.5625 0 C 3.070312 0 2.664062 -0.164062 2.34375 -0.5 C 2.019531 -0.832031 1.859375 -1.242188 1.859375 -1.734375 L 1.859375 -19.375 C 1.859375 -19.863281 2.019531 -20.273438 2.34375 -20.609375 C 2.664062 -20.941406 3.070312 -21.109375 3.5625 -21.109375 C 4.0625 -21.109375 4.472656 -20.941406 4.796875 -20.609375 C 5.117188 -20.273438 5.28125 -19.863281 5.28125 -19.375 L 5.28125 -12.296875 L 4.84375 -12.375 C 5.019531 -12.707031 5.257812 -13.054688 5.5625 -13.421875 C 5.863281 -13.796875 6.234375 -14.144531 6.671875 -14.46875 C 7.109375 -14.789062 7.59375 -15.050781 8.125 -15.25 C 8.664062 -15.445312 9.25 -15.546875 9.875 -15.546875 Z M 9.875 -15.546875 "/></g></g><g style="fill:#150d0a;fill-opacity:1;"><g transform="translate(182.00722, 222.580063)"><path style="stroke:none" d="M 16.65625 -7.625 C 16.65625 -6.0625 16.304688 -4.6875 15.609375 -3.5 C 14.921875 -2.3125 13.988281 -1.382812 12.8125 -0.71875 C 11.644531 -0.0507812 10.34375 0.28125 8.90625 0.28125 C 7.457031 0.28125 6.144531 -0.0507812 4.96875 -0.71875 C 3.800781 -1.382812 2.867188 -2.3125 2.171875 -3.5 C 1.484375 -4.6875 1.140625 -6.0625 1.140625 -7.625 C 1.140625 -9.175781 1.484375 -10.546875 2.171875 -11.734375 C 2.867188 -12.929688 3.800781 -13.863281 4.96875 -14.53125 C 6.144531 -15.207031 7.457031 -15.546875 8.90625 -15.546875 C 10.34375 -15.546875 11.644531 -15.207031 12.8125 -14.53125 C 13.988281 -13.863281 14.921875 -12.929688 15.609375 -11.734375 C 16.304688 -10.546875 16.65625 -9.175781 16.65625 -7.625 Z M 13.234375 -7.625 C 13.234375 -8.59375 13.035156 -9.429688 12.640625 -10.140625 C 12.253906 -10.859375 11.734375 -11.414062 11.078125 -11.8125 C 10.421875 -12.207031 9.695312 -12.40625 8.90625 -12.40625 C 8.101562 -12.40625 7.375 -12.207031 6.71875 -11.8125 C 6.0625 -11.414062 5.535156 -10.859375 5.140625 -10.140625 C 4.753906 -9.429688 4.5625 -8.59375 4.5625 -7.625 C 4.5625 -6.664062 4.753906 -5.828125 5.140625 -5.109375 C 5.535156 -4.398438 6.0625 -3.847656 6.71875 -3.453125 C 7.375 -3.054688 8.101562 -2.859375 8.90625 -2.859375 C 9.695312 -2.859375 10.421875 -3.054688 11.078125 -3.453125 C 11.734375 -3.847656 12.253906 -4.398438 12.640625 -5.109375 C 13.035156 -5.828125 13.234375 -6.664062 13.234375 -7.625 Z M 13.234375 -7.625 "/></g></g><g style="fill:#150d0a;fill-opacity:1;"><g transform="translate(199.813138, 222.580063)"><path style="stroke:none" d="M 9.75 -15.546875 C 11.082031 -15.546875 12.273438 -15.207031 13.328125 -14.53125 C 14.390625 -13.863281 15.226562 -12.9375 15.84375 -11.75 C 16.46875 -10.570312 16.78125 -9.203125 16.78125 -7.640625 C 16.78125 -6.085938 16.46875 -4.710938 15.84375 -3.515625 C 15.226562 -2.328125 14.398438 -1.394531 13.359375 -0.71875 C 12.328125 -0.0507812 11.164062 0.28125 9.875 0.28125 C 9.113281 0.28125 8.398438 0.160156 7.734375 -0.078125 C 7.066406 -0.328125 6.476562 -0.640625 5.96875 -1.015625 C 5.46875 -1.398438 5.078125 -1.785156 4.796875 -2.171875 C 4.523438 -2.566406 4.390625 -2.898438 4.390625 -3.171875 L 5.28125 -3.53125 L 5.28125 3.96875 C 5.28125 4.457031 5.117188 4.867188 4.796875 5.203125 C 4.472656 5.535156 4.0625 5.703125 3.5625 5.703125 C 3.070312 5.703125 2.664062 5.539062 2.34375 5.21875 C 2.019531 4.894531 1.859375 4.476562 1.859375 3.96875 L 1.859375 -13.53125 C 1.859375 -14.019531 2.019531 -14.429688 2.34375 -14.765625 C 2.664062 -15.097656 3.070312 -15.265625 3.5625 -15.265625 C 4.0625 -15.265625 4.472656 -15.097656 4.796875 -14.765625 C 5.117188 -14.429688 5.28125 -14.019531 5.28125 -13.53125 L 5.28125 -12.125 L 4.796875 -12.375 C 4.796875 -12.625 4.925781 -12.925781 5.1875 -13.28125 C 5.457031 -13.632812 5.820312 -13.984375 6.28125 -14.328125 C 6.738281 -14.679688 7.265625 -14.972656 7.859375 -15.203125 C 8.460938 -15.429688 9.09375 -15.546875 9.75 -15.546875 Z M 9.328125 -12.40625 C 8.492188 -12.40625 7.757812 -12.195312 7.125 -11.78125 C 6.5 -11.363281 6.007812 -10.796875 5.65625 -10.078125 C 5.3125 -9.367188 5.140625 -8.554688 5.140625 -7.640625 C 5.140625 -6.753906 5.3125 -5.941406 5.65625 -5.203125 C 6.007812 -4.472656 6.5 -3.898438 7.125 -3.484375 C 7.757812 -3.066406 8.492188 -2.859375 9.328125 -2.859375 C 10.160156 -2.859375 10.882812 -3.066406 11.5 -3.484375 C 12.125 -3.898438 12.613281 -4.472656 12.96875 -5.203125 C 13.320312 -5.941406 13.5 -6.753906 13.5 -7.640625 C 13.5 -8.554688 13.320312 -9.367188 12.96875 -10.078125 C 12.613281 -10.796875 12.125 -11.363281 11.5 -11.78125 C 10.882812 -12.195312 10.160156 -12.40625 9.328125 -12.40625 Z M 9.328125 -12.40625 "/></g></g><g style="fill:#150d0a;fill-opacity:1;"><g transform="translate(217.7332, 222.580063)"><path style="stroke:none" d="M 3.9375 -20 C 4.207031 -20 4.488281 -19.925781 4.78125 -19.78125 C 5.070312 -19.644531 5.296875 -19.460938 5.453125 -19.234375 L 12.375 -8.5625 L 10.953125 -8.609375 L 18.0625 -19.234375 C 18.425781 -19.742188 18.890625 -20 19.453125 -20 C 19.910156 -20 20.320312 -19.835938 20.6875 -19.515625 C 21.050781 -19.191406 21.234375 -18.773438 21.234375 -18.265625 L 21.234375 -1.734375 C 21.234375 -1.242188 21.066406 -0.832031 20.734375 -0.5 C 20.410156 -0.164062 19.984375 0 19.453125 0 C 18.921875 0 18.488281 -0.164062 18.15625 -0.5 C 17.820312 -0.832031 17.65625 -1.242188 17.65625 -1.734375 L 17.65625 -15.171875 L 18.78125 -14.921875 L 12.953125 -6.046875 C 12.785156 -5.835938 12.570312 -5.65625 12.3125 -5.5 C 12.050781 -5.351562 11.789062 -5.289062 11.53125 -5.3125 C 11.28125 -5.289062 11.023438 -5.351562 10.765625 -5.5 C 10.515625 -5.65625 10.300781 -5.835938 10.125 -6.046875 L 4.671875 -14.671875 L 5.421875 -16.171875 L 5.421875 -1.734375 C 5.421875 -1.242188 5.269531 -0.832031 4.96875 -0.5 C 4.664062 -0.164062 4.265625 0 3.765625 0 C 3.285156 0 2.894531 -0.164062 2.59375 -0.5 C 2.289062 -0.832031 2.140625 -1.242188 2.140625 -1.734375 L 2.140625 -18.265625 C 2.140625 -18.734375 2.316406 -19.140625 2.671875 -19.484375 C 3.023438 -19.828125 3.445312 -20 3.9375 -20 Z M 3.9375 -20 "/></g></g><g style="fill:#150d0a;fill-opacity:1;"><g transform="translate(241.103464, 222.580063)"><path style="stroke:none" d="M 9.046875 0.28125 C 7.429688 0.28125 6.023438 -0.0507812 4.828125 -0.71875 C 3.640625 -1.394531 2.726562 -2.3125 2.09375 -3.46875 C 1.457031 -4.632812 1.140625 -5.953125 1.140625 -7.421875 C 1.140625 -9.128906 1.484375 -10.585938 2.171875 -11.796875 C 2.867188 -13.003906 3.78125 -13.929688 4.90625 -14.578125 C 6.03125 -15.222656 7.21875 -15.546875 8.46875 -15.546875 C 9.4375 -15.546875 10.351562 -15.34375 11.21875 -14.9375 C 12.09375 -14.539062 12.859375 -13.992188 13.515625 -13.296875 C 14.179688 -12.609375 14.707031 -11.804688 15.09375 -10.890625 C 15.488281 -9.984375 15.6875 -9.015625 15.6875 -7.984375 C 15.664062 -7.523438 15.484375 -7.15625 15.140625 -6.875 C 14.804688 -6.59375 14.410156 -6.453125 13.953125 -6.453125 L 3.046875 -6.453125 L 2.203125 -9.296875 L 12.671875 -9.296875 L 12.046875 -8.734375 L 12.046875 -9.5 C 12.003906 -10.050781 11.804688 -10.546875 11.453125 -10.984375 C 11.097656 -11.421875 10.660156 -11.765625 10.140625 -12.015625 C 9.617188 -12.273438 9.0625 -12.40625 8.46875 -12.40625 C 7.90625 -12.40625 7.375 -12.328125 6.875 -12.171875 C 6.382812 -12.023438 5.957031 -11.769531 5.59375 -11.40625 C 5.226562 -11.050781 4.941406 -10.566406 4.734375 -9.953125 C 4.523438 -9.347656 4.421875 -8.578125 4.421875 -7.640625 C 4.421875 -6.617188 4.632812 -5.75 5.0625 -5.03125 C 5.488281 -4.320312 6.039062 -3.78125 6.71875 -3.40625 C 7.394531 -3.039062 8.113281 -2.859375 8.875 -2.859375 C 9.570312 -2.859375 10.128906 -2.914062 10.546875 -3.03125 C 10.972656 -3.144531 11.3125 -3.28125 11.5625 -3.4375 C 11.820312 -3.601562 12.054688 -3.742188 12.265625 -3.859375 C 12.609375 -4.023438 12.929688 -4.109375 13.234375 -4.109375 C 13.648438 -4.109375 13.992188 -3.960938 14.265625 -3.671875 C 14.546875 -3.390625 14.6875 -3.0625 14.6875 -2.6875 C 14.6875 -2.164062 14.421875 -1.695312 13.890625 -1.28125 C 13.398438 -0.863281 12.707031 -0.5 11.8125 -0.1875 C 10.914062 0.125 9.992188 0.28125 9.046875 0.28125 Z M 9.046875 0.28125 "/></g></g></g></svg>